<svg width="156" height="140" viewBox="0 0 156 140" fill="none" xmlns="http://www.w3.org/2000/svg">
<mask id="mask0_134_41" style="mask-type:luminance" maskUnits="userSpaceOnUse" x="-1" y="-5" width="158" height="154">
<path d="M156.105 -4.21555H-0.0444336V148.926H156.105V-4.21555Z" fill="white"/>
</mask>
<g mask="url(#mask0_134_41)">
<path d="M75.3351 1.50102C74.9536 1.15411 74.3709 1.15411 73.9895 1.50102L12.3287 57.5761C11.0783 58.7132 10.3655 60.3249 10.3655 62.015V105.827C10.3655 106.695 11.3959 107.151 12.0383 106.567L100.639 25.9924C101.075 25.5957 101.075 24.9095 100.639 24.5128L75.3351 1.50102Z" fill="#C29268" stroke="#C29268"/>
<path d="M11.3655 138.717C10.8132 138.717 10.3655 138.269 10.3655 137.717V121.484C10.3655 121.205 10.482 120.939 10.6869 120.75L73.4459 62.7745C73.8298 62.4198 74.4222 62.4207 74.8051 62.7765L98.0817 84.4033C98.5 84.7919 98.5085 85.4513 98.1004 85.8506L44.3654 138.431C44.1785 138.614 43.9275 138.717 43.666 138.717H11.3655Z" fill="#C29268" stroke="#C29268"/>
<path d="M141 110.699C141 111.574 139.957 112.027 139.318 111.431L81.7835 57.7531C81.3598 57.3578 81.3597 56.6863 81.7833 56.2909L107.103 32.6566C107.495 32.2899 108.108 32.2992 108.489 32.6776L139.225 63.162C140.361 64.2886 141 65.8222 141 67.422V110.699Z" fill="#C29268" stroke="#C29268"/>
<path d="M140.49 124.155C140.49 123.875 140.372 123.607 140.166 123.418L106.062 92.1451C105.667 91.7833 105.058 91.7964 104.679 92.1749L81.3654 115.482C80.9649 115.882 80.9764 116.535 81.3907 116.921L104.497 138.448C104.683 138.621 104.926 138.717 105.179 138.717H139.49C140.042 138.717 140.49 138.269 140.49 137.717V124.155Z" fill="#C29268" stroke="#C29268"/>
<path d="M74.1264 122.126L91.0425 138.717H57.2102L74.1264 122.126Z" fill="#C29268" stroke="#C29268"/>
</g>
</svg>
